<mxfile host="app.diagrams.net" modified="2020-04-29T16:40:28.170Z" agent="5.0 (Macintosh; Intel Mac OS X 10_15_4) AppleWebKit/605.1.15 (KHTML, like Gecko) Version/13.1 Safari/605.1.15" etag="dDuRvSYFk3MK2e3MXALx" version="13.0.2" type="github">
  <diagram id="aYKf7A-iZY5i_Eegm2vb" name="Page-1">
    <mxGraphModel dx="946" dy="662" grid="1" gridSize="10" guides="1" tooltips="1" connect="1" arrows="1" fold="1" page="1" pageScale="1" pageWidth="827" pageHeight="1169" math="0" shadow="0">
      <root>
        <mxCell id="0" />
        <mxCell id="1" parent="0" />
        <mxCell id="G31xSJKCfdJvnDSW9hYy-11" value="Main" style="whiteSpace=wrap;html=1;shape=partialRectangle;top=0;left=0;bottom=1;right=0;points=[[0,1],[1,1]];fillColor=none;align=center;verticalAlign=bottom;routingCenterY=0.5;snapToPoint=1;recursiveResize=0;autosize=1;treeFolding=1;treeMoving=1;newEdgeStyle={&quot;edgeStyle&quot;:&quot;entityRelationEdgeStyle&quot;,&quot;startArrow&quot;:&quot;none&quot;,&quot;endArrow&quot;:&quot;none&quot;,&quot;segment&quot;:10,&quot;curved&quot;:1};" vertex="1" parent="1">
          <mxGeometry x="60" y="330" width="60" height="20" as="geometry" />
        </mxCell>
        <mxCell id="G31xSJKCfdJvnDSW9hYy-14" value="CUST_X" style="whiteSpace=wrap;html=1;shape=partialRectangle;top=0;left=0;bottom=1;right=0;points=[[0,1],[1,1]];fillColor=none;align=center;verticalAlign=bottom;routingCenterY=0.5;snapToPoint=1;recursiveResize=0;autosize=1;treeFolding=1;treeMoving=1;newEdgeStyle={&quot;edgeStyle&quot;:&quot;entityRelationEdgeStyle&quot;,&quot;startArrow&quot;:&quot;none&quot;,&quot;endArrow&quot;:&quot;none&quot;,&quot;segment&quot;:10,&quot;curved&quot;:1};" vertex="1" parent="1">
          <mxGeometry x="205" y="230" width="80" height="20" as="geometry" />
        </mxCell>
        <mxCell id="G31xSJKCfdJvnDSW9hYy-15" value="" style="edgeStyle=entityRelationEdgeStyle;startArrow=none;endArrow=none;segment=10;curved=1;exitX=1;exitY=1;exitDx=0;exitDy=0;" edge="1" target="G31xSJKCfdJvnDSW9hYy-14" parent="1" source="G31xSJKCfdJvnDSW9hYy-11">
          <mxGeometry relative="1" as="geometry">
            <mxPoint x="120" y="260" as="sourcePoint" />
          </mxGeometry>
        </mxCell>
        <mxCell id="G31xSJKCfdJvnDSW9hYy-16" value="CUST_Y" style="whiteSpace=wrap;html=1;shape=partialRectangle;top=0;left=0;bottom=1;right=0;points=[[0,1],[1,1]];fillColor=none;align=center;verticalAlign=bottom;routingCenterY=0.5;snapToPoint=1;recursiveResize=0;autosize=1;treeFolding=1;treeMoving=1;newEdgeStyle={&quot;edgeStyle&quot;:&quot;entityRelationEdgeStyle&quot;,&quot;startArrow&quot;:&quot;none&quot;,&quot;endArrow&quot;:&quot;none&quot;,&quot;segment&quot;:10,&quot;curved&quot;:1};" vertex="1" parent="1">
          <mxGeometry x="215" y="320" width="80" height="20" as="geometry" />
        </mxCell>
        <mxCell id="G31xSJKCfdJvnDSW9hYy-17" value="" style="edgeStyle=entityRelationEdgeStyle;startArrow=none;endArrow=none;segment=10;curved=1;" edge="1" target="G31xSJKCfdJvnDSW9hYy-16" parent="1">
          <mxGeometry relative="1" as="geometry">
            <mxPoint x="120" y="350" as="sourcePoint" />
          </mxGeometry>
        </mxCell>
        <mxCell id="G31xSJKCfdJvnDSW9hYy-20" value="CUST_X_STAGE" style="whiteSpace=wrap;html=1;shape=partialRectangle;top=0;left=0;bottom=1;right=0;points=[[0,1],[1,1]];fillColor=none;align=center;verticalAlign=bottom;routingCenterY=0.5;snapToPoint=1;recursiveResize=0;autosize=1;treeFolding=1;treeMoving=1;newEdgeStyle={&quot;edgeStyle&quot;:&quot;entityRelationEdgeStyle&quot;,&quot;startArrow&quot;:&quot;none&quot;,&quot;endArrow&quot;:&quot;none&quot;,&quot;segment&quot;:10,&quot;curved&quot;:1};" vertex="1" parent="1">
          <mxGeometry x="325" y="210" width="130" height="20" as="geometry" />
        </mxCell>
        <mxCell id="G31xSJKCfdJvnDSW9hYy-21" value="" style="edgeStyle=entityRelationEdgeStyle;startArrow=none;endArrow=none;segment=10;curved=1;exitX=1;exitY=1;exitDx=0;exitDy=0;" edge="1" target="G31xSJKCfdJvnDSW9hYy-20" parent="1" source="G31xSJKCfdJvnDSW9hYy-14">
          <mxGeometry relative="1" as="geometry">
            <mxPoint x="310" y="250" as="sourcePoint" />
          </mxGeometry>
        </mxCell>
        <mxCell id="G31xSJKCfdJvnDSW9hYy-24" value="CUST_X_DEV" style="whiteSpace=wrap;html=1;shape=partialRectangle;top=0;left=0;bottom=1;right=0;points=[[0,1],[1,1]];fillColor=none;align=center;verticalAlign=bottom;routingCenterY=0.5;snapToPoint=1;recursiveResize=0;autosize=1;treeFolding=1;treeMoving=1;newEdgeStyle={&quot;edgeStyle&quot;:&quot;entityRelationEdgeStyle&quot;,&quot;startArrow&quot;:&quot;none&quot;,&quot;endArrow&quot;:&quot;none&quot;,&quot;segment&quot;:10,&quot;curved&quot;:1};" vertex="1" parent="1">
          <mxGeometry x="335" y="140" width="110" height="20" as="geometry" />
        </mxCell>
        <mxCell id="G31xSJKCfdJvnDSW9hYy-25" value="" style="edgeStyle=entityRelationEdgeStyle;startArrow=none;endArrow=none;segment=10;curved=1;exitX=1;exitY=1;exitDx=0;exitDy=0;" edge="1" target="G31xSJKCfdJvnDSW9hYy-24" parent="1" source="G31xSJKCfdJvnDSW9hYy-14">
          <mxGeometry relative="1" as="geometry">
            <mxPoint x="310" y="180" as="sourcePoint" />
          </mxGeometry>
        </mxCell>
        <mxCell id="G31xSJKCfdJvnDSW9hYy-26" value="CUST_X_PROD" style="whiteSpace=wrap;html=1;shape=partialRectangle;top=0;left=0;bottom=1;right=0;points=[[0,1],[1,1]];fillColor=none;align=center;verticalAlign=bottom;routingCenterY=0.5;snapToPoint=1;recursiveResize=0;autosize=1;treeFolding=1;treeMoving=1;newEdgeStyle={&quot;edgeStyle&quot;:&quot;entityRelationEdgeStyle&quot;,&quot;startArrow&quot;:&quot;none&quot;,&quot;endArrow&quot;:&quot;none&quot;,&quot;segment&quot;:10,&quot;curved&quot;:1};" vertex="1" parent="1">
          <mxGeometry x="320" y="260" width="120" height="20" as="geometry" />
        </mxCell>
        <mxCell id="G31xSJKCfdJvnDSW9hYy-27" value="" style="edgeStyle=entityRelationEdgeStyle;startArrow=none;endArrow=none;segment=10;curved=1;exitX=1;exitY=1;exitDx=0;exitDy=0;" edge="1" target="G31xSJKCfdJvnDSW9hYy-26" parent="1" source="G31xSJKCfdJvnDSW9hYy-14">
          <mxGeometry relative="1" as="geometry">
            <mxPoint x="300" y="300" as="sourcePoint" />
          </mxGeometry>
        </mxCell>
        <mxCell id="G31xSJKCfdJvnDSW9hYy-30" value="FEATURE/ABC &lt;br&gt;Branch" style="whiteSpace=wrap;html=1;shape=partialRectangle;top=0;left=0;bottom=1;right=0;points=[[0,1],[1,1]];fillColor=none;align=center;verticalAlign=bottom;routingCenterY=0.5;snapToPoint=1;recursiveResize=0;autosize=1;treeFolding=1;treeMoving=1;newEdgeStyle={&quot;edgeStyle&quot;:&quot;entityRelationEdgeStyle&quot;,&quot;startArrow&quot;:&quot;none&quot;,&quot;endArrow&quot;:&quot;none&quot;,&quot;segment&quot;:10,&quot;curved&quot;:1};" vertex="1" parent="1">
          <mxGeometry x="490" y="100" width="120" height="30" as="geometry" />
        </mxCell>
        <mxCell id="G31xSJKCfdJvnDSW9hYy-31" value="" style="edgeStyle=entityRelationEdgeStyle;startArrow=none;endArrow=none;segment=10;curved=1;exitX=1;exitY=1;exitDx=0;exitDy=0;" edge="1" target="G31xSJKCfdJvnDSW9hYy-30" parent="1" source="G31xSJKCfdJvnDSW9hYy-24">
          <mxGeometry relative="1" as="geometry">
            <mxPoint x="470" y="150" as="sourcePoint" />
          </mxGeometry>
        </mxCell>
        <mxCell id="G31xSJKCfdJvnDSW9hYy-32" value="FEATURE/BCD&lt;br&gt;Branch" style="whiteSpace=wrap;html=1;shape=partialRectangle;top=0;left=0;bottom=1;right=0;points=[[0,1],[1,1]];fillColor=none;align=center;verticalAlign=bottom;routingCenterY=0.5;snapToPoint=1;recursiveResize=0;autosize=1;treeFolding=1;treeMoving=1;newEdgeStyle={&quot;edgeStyle&quot;:&quot;entityRelationEdgeStyle&quot;,&quot;startArrow&quot;:&quot;none&quot;,&quot;endArrow&quot;:&quot;none&quot;,&quot;segment&quot;:10,&quot;curved&quot;:1};" vertex="1" parent="1">
          <mxGeometry x="490" y="150" width="120" height="30" as="geometry" />
        </mxCell>
        <mxCell id="G31xSJKCfdJvnDSW9hYy-33" value="" style="edgeStyle=entityRelationEdgeStyle;startArrow=none;endArrow=none;segment=10;curved=1;" edge="1" target="G31xSJKCfdJvnDSW9hYy-32" parent="1">
          <mxGeometry relative="1" as="geometry">
            <mxPoint x="450" y="160" as="sourcePoint" />
          </mxGeometry>
        </mxCell>
      </root>
    </mxGraphModel>
  </diagram>
</mxfile>
